#N canvas 80 50 1400 900 10;
#X obj 20 20 cnv 15 1340 840 empty empty NOISEBOX 20 12 0 24 #303030 #f6f6f6 0;
#X text 60 60 Harsh noise generator for drones, feedback, and Japanoise blasts.;
#X text 60 80 Drag the waveform monitor to retune the oscillator, or ride the sliders like a 1980s synth.;
#X obj 60 110 loadbang;
#X msg 60 140 ; noisebox-osc-freq-set set 440; noisebox-osc-freq 440; noisebox-osc-wave-set set 6; noisebox-osc-wave 6; noisebox-hold-set set 1; noisebox-hold 1; noisebox-lfo-wave-set set 0; noisebox-lfo-wave 0; noisebox-lfo-freq-set set 0.5; noisebox-lfo-freq 0.5; noisebox-lfo-depth-set set 0.3; noisebox-lfo-depth 0.3; noisebox-filt1-freq-set set 1500; noisebox-filt1-freq 1500; noisebox-filt1-res-set set 0.35; noisebox-filt1-res 0.35; noisebox-delay-time-set set 420; noisebox-delay-time 420; noisebox-delay-feedback-set set 0.62; noisebox-delay-feedback 0.62; noisebox-delay-lfo-freq-set set 0.2; noisebox-delay-lfo-freq 0.2; noisebox-delay-lfo-depth-set set 90; noisebox-delay-lfo-depth 90; noisebox-filt2-freq-set set 2200; noisebox-filt2-freq 2200; noisebox-filt2-res-set set 0.28; noisebox-filt2-res 0.28; noisebox-dist-range-set set 7; noisebox-dist-range 7; noisebox-volume-set set 0.6; noisebox-volume 0.6;
#X obj 60 210 hsl 180 20 20 8000 1 0 noisebox-osc-freq noisebox-osc-freq-set OSC\ FRQ 10 10 0 14 #202020 #f6f6f6 #f05050 0 1;
#X obj 60 240 nbx 6 18 20 8000 0 0 empty noisebox-osc-freq-set Hz 32 10 0 12 #202020 #f6f6f6 #202020 0 0 0 0 1 256;
#X text 252 214 Touch the scope or sweep OSC FRQ for macro pitch bends.;
#X obj 60 280 hradio 18 1 0 8 noisebox-osc-wave noisebox-osc-wave-set OSC\ WAVE 0 -10 0 12 #202020 #f6f6f6 #f05050 0;
#X text 60 308 SIN | PLS | NSE | NST | WNS | TRI | SAW | SQR;
#X obj 60 340 tgl 20 0 noisebox-hold noisebox-hold-set HLD 4 -7 0 12 #202020 #f6f6f6 #f05050 1 1;
#X text 100 344 Hold ON = continuous sweep, OFF = quantised chromatic steps (except NSE/WNS).;
#X obj 60 380 hradio 18 1 0 8 noisebox-lfo-wave noisebox-lfo-wave-set LFO\ WAVE 0 -10 0 12 #202020 #f6f6f6 #5080f0 0;
#X obj 60 410 hsl 160 18 0.01 12 1 0 noisebox-lfo-freq noisebox-lfo-freq-set LFO\ FRQ 10 10 0 12 #202020 #f6f6f6 #5080f0 0 1;
#X obj 60 440 hsl 160 18 0 1 0 0 noisebox-lfo-depth noisebox-lfo-depth-set LFO\ INT 10 10 0 12 #202020 #f6f6f6 #5080f0 0 1;
#X obj 60 480 hsl 180 18 40 12000 1 0 noisebox-filt1-freq noisebox-filt1-freq-set FLT\ FRQ 10 10 0 12 #202020 #f6f6f6 #509050 0 1;
#X obj 60 510 hsl 180 18 0 1 0 0 noisebox-filt1-res noisebox-filt1-res-set FLT\ RES 10 10 0 12 #202020 #f6f6f6 #509050 0 1;
#X obj 60 550 hsl 180 18 1 2000 0 0 noisebox-delay-time noisebox-delay-time-set DLY\ TME 10 10 0 12 #202020 #f6f6f6 #f0a050 0 1;
#X obj 60 580 hsl 180 18 0 0.97 0 0 noisebox-delay-feedback noisebox-delay-feedback-set DLY\ FDB 10 10 0 12 #202020 #f6f6f6 #f0a050 0 1;
#X obj 60 620 hsl 160 18 0.01 10 1 0 noisebox-delay-lfo-freq noisebox-delay-lfo-freq-set DLY\ LFO\ FRQ 10 10 0 12 #202020 #f6f6f6 #f0d060 0 1;
#X obj 60 650 hsl 160 18 0 600 0 0 noisebox-delay-lfo-depth noisebox-delay-lfo-depth-set DLY\ LFO\ INT 10 10 0 12 #202020 #f6f6f6 #f0d060 0 1;
#X obj 60 690 hsl 180 18 40 12000 1 0 noisebox-filt2-freq noisebox-filt2-freq-set FLT\ FRQ\ 2 10 10 0 12 #202020 #f6f6f6 #9050f0 0 1;
#X obj 60 720 hsl 180 18 0 1 0 0 noisebox-filt2-res noisebox-filt2-res-set FLT\ RES\ 2 10 10 0 12 #202020 #f6f6f6 #9050f0 0 1;
#X obj 60 760 hsl 200 18 0 20 0 0 noisebox-dist-range noisebox-dist-range-set DST\ RNG 10 10 0 12 #202020 #f6f6f6 #f050f0 0 1;
#X obj 60 790 hsl 200 18 0 1 0 0 noisebox-volume noisebox-volume-set VOL\ CTR 10 10 0 12 #202020 #f6f6f6 #ffffff 0 1;
#N canvas 950 80 260 150 (subpatch) 0;
#X array noisebox_scope 512 float 3;
#A 0 0 0 0 0 0 0 0 0 0 0 0 0 0 0 0 0 0 0 0 0 0 0 0 0 0 0 0 0 0 0 0 0 0 0 0 0 0 0 0 0 0 0 0 0 0 0 0 0 0 0 0 0 0 0 0 0 0 0 0 0 0 0 0 0 0 0 0 0 0 0 0 0 0 0 0 0 0 0 0 0 0 0 0 0 0 0 0 0 0 0 0 0 0 0 0 0 0 0 0 0 0 0 0 0 0 0 0 0 0 0 0 0 0 0 0 0 0 0 0 0 0 0 0 0 0 0 0 0 0 0 0 0 0 0 0 0 0 0 0 0 0 0 0 0 0 0 0 0 0 0 0 0 0 0 0 0 0 0 0 0 0 0 0 0 0 0 0 0 0 0 0 0 0 0 0 0 0 0 0 0 0 0 0 0 0 0 0 0 0 0 0 0 0 0 0 0 0 0 0 0 0 0 0 0 0 0 0 0 0 0 0 0 0 0 0 0 0 0 0 0 0 0 0 0 0 0 0 0 0 0 0 0 0 0 0 0 0 0 0 0 0 0 0 0 0 0 0 0 0 0 0 0 0 0 0 0 0 0 0 0 0 0 0 0 0 0 0 0 0 0 0 0 0 0 0 0 0 0 0 0 0 0 0 0 0 0 0 0 0 0 0 0 0 0 0 0 0 0 0 0 0 0 0 0 0 0 0 0 0 0 0 0 0 0 0 0 0 0 0 0 0 0 0 0 0 0 0 0 0 0 0 0 0 0 0 0 0 0 0 0 0 0 0 0 0 0 0 0 0 0 0 0 0 0 0 0 0 0 0 0 0 0 0 0 0 0 0 0 0 0 0 0 0 0 0 0 0 0 0 0 0 0 0 0 0 0 0 0 0 0 0 0 0 0 0 0 0 0 0 0 0 0 0 0 0 0 0 0 0 0 0 0 0 0 0 0 0 0 0 0 0 0 0 0 0 0 0 0 0 0 0 0 0 0 0 0 0 0 0 0 0 0 0 0 0 0 0 0 0 0 0 0 0 0 0 0 0 0 0 0 0 0 0 0 0 0 0 0 0 0 0 0 0 0 0 0 0 0 0 0 0 0 0 0 0 0 0 0 0 0 0 0 0 0 0 0 0 0 0 0 0 0 0 0 0 0 0 0 0 0 0 0;
#X coords 0 1 511 -1 400 160 1;
#X restore 540 80 graph;
#N canvas 960 280 260 150 (subpatch) 0;
#X array noisebox_freqpad 64 float 1;
#A 0 0.5 0.5 0.5 0.5 0.5 0.5 0.5 0.5 0.5 0.5 0.5 0.5 0.5 0.5 0.5 0.5 0.5 0.5 0.5 0.5 0.5 0.5 0.5 0.5 0.5 0.5 0.5 0.5 0.5 0.5 0.5 0.5 0.5 0.5 0.5 0.5 0.5 0.5 0.5 0.5 0.5 0.5 0.5 0.5 0.5 0.5 0.5 0.5 0.5 0.5 0.5 0.5 0.5 0.5 0.5 0.5 0.5 0.5 0.5 0.5 0.5 0.5 0.5 0.5;
#X coords 0 1 63 0 400 120 1;
#X restore 540 260 graph;
#X text 552 60 Oscilloscope – live mix output;
#X text 552 244 Frequency touch pad – drag vertically to retune (log 20-8000 Hz).;
#X obj 540 420 noisebox-engine;
#X obj 960 300 pd scope-writer;
#X obj 960 340 pd freq-touch;
#X obj 1060 780 dac~;
#X connect 3 0 4 0;
#X connect 20 0 23 0;
#X connect 20 1 23 1;
#N canvas 0 0 320 200 scope-writer 0;
#X obj 40 40 r~ noisebox-scope;
#X obj 40 80 tabwrite~ noisebox_scope;
#X obj 120 60 metro 25;
#X obj 120 30 loadbang;
#X connect 0 0 1 0;
#X connect 2 0 1 0;
#X connect 3 0 2 0;
#X restore 960 300 pd scope-writer;
#N canvas 0 0 600 420 freq-touch 0;
#X obj 40 40 loadbang;
#X obj 40 70 metro 40;
#X obj 40 100 array sum noisebox_freqpad;
#X obj 40 130 / 64;
#X obj 40 160 clip 0 1;
#X obj 40 190 t f f;
#X obj 40 220 expr exp($f1*(log(8000)-log(20))+log(20));
#X obj 40 250 t f f;
#X obj 40 280 s noisebox-osc-freq;
#X msg 150 280 ; noisebox-osc-freq-set set $1;
#X obj 300 200 r noisebox-osc-freq;
#X obj 300 230 max 1;
#X obj 300 260 expr (log($f1)-log(20))/(log(8000)-log(20));
#X obj 300 290 clip 0 1;
#X msg 300 320 ; noisebox_freqpad const $1;
#X connect 0 0 1 0;
#X connect 1 0 2 0;
#X connect 2 0 3 0;
#X connect 3 0 4 0;
#X connect 4 0 5 0;
#X connect 5 0 6 0;
#X connect 5 1 6 1;
#X connect 6 0 7 0;
#X connect 7 0 8 0;
#X connect 7 1 9 0;
#X connect 10 0 11 0;
#X connect 11 0 12 0;
#X connect 12 0 13 0;
#X connect 13 0 14 0;
#X restore 960 340 pd freq-touch;
