#N canvas 80 50 1400 900 10;
#X obj 20 20 cnv 15 1340 840 empty empty NOISEBOX 20 12 0 24 #303030 #f6f6f6 0;
#X text 60 60 Harsh noise generator for drones, feedback, and Japanoise blasts.;
#X text 60 80 Drag the waveform monitor to retune the oscillator, or ride the sliders like a 1980s synth.;
#X obj 60 110 loadbang;
#X msg 60 140 ; noisebox-osc-freq-set set 440; noisebox-osc-freq 440; noisebox-osc-wave-set set 6; noisebox-osc-wave 6; noisebox-hold-set set 1; noisebox-hold 1; noisebox-lfo-wave-set set 0; noisebox-lfo-wave 0; noisebox-lfo-freq-set set 0.5; noisebox-lfo-freq 0.5; noisebox-lfo-depth-set set 0.3; noisebox-lfo-depth 0.3; noisebox-filt1-freq-set set 1500; noisebox-filt1-freq 1500; noisebox-filt1-res-set set 0.35; noisebox-filt1-res 0.35; noisebox-delay-time-set set 420; noisebox-delay-time 420; noisebox-delay-feedback-set set 0.62; noisebox-delay-feedback 0.62; noisebox-delay-lfo-freq-set set 0.2; noisebox-delay-lfo-freq 0.2; noisebox-delay-lfo-depth-set set 90; noisebox-delay-lfo-depth 90; noisebox-filt2-freq-set set 2200; noisebox-filt2-freq 2200; noisebox-filt2-res-set set 0.28; noisebox-filt2-res 0.28; noisebox-dist-range-set set 7; noisebox-dist-range 7; noisebox-volume-set set 0.6; noisebox-volume 0.6;
#X obj 60 210 hsl 180 20 20 8000 1 0 noisebox-osc-freq noisebox-osc-freq-set OSC\ FRQ 10 10 0 14 #202020 #f6f6f6 #f05050 0 1;
#X obj 60 240 nbx 6 18 20 8000 0 0 empty noisebox-osc-freq-set Hz 32 10 0 12 #202020 #f6f6f6 #202020 0 0 0 0 1 256;
#X text 252 214 Touch the scope or sweep OSC FRQ for macro pitch bends.;
#X obj 60 280 hradio 18 1 0 8 noisebox-osc-wave noisebox-osc-wave-set OSC\ WAVE 0 -10 0 12 #202020 #f6f6f6 #f05050 0;
#X text 60 308 SIN | PLS | NSE | NST | WNS | TRI | SAW | SQR;
#X obj 60 340 tgl 20 0 noisebox-hold noisebox-hold-set HLD 4 -7 0 12 #202020 #f6f6f6 #f05050 1 1;
#X text 100 344 Hold ON = continuous sweep, OFF = quantised chromatic steps (except NSE/WNS).;
#X obj 60 380 hradio 18 1 0 8 noisebox-lfo-wave noisebox-lfo-wave-set LFO\ WAVE 0 -10 0 12 #202020 #f6f6f6 #5080f0 0;
#X obj 60 410 hsl 160 18 0.01 12 1 0 noisebox-lfo-freq noisebox-lfo-freq-set LFO\ FRQ 10 10 0 12 #202020 #f6f6f6 #5080f0 0 1;
#X obj 60 440 hsl 160 18 0 1 0 0 noisebox-lfo-depth noisebox-lfo-depth-set LFO\ INT 10 10 0 12 #202020 #f6f6f6 #5080f0 0 1;
#X obj 60 480 hsl 180 18 40 12000 1 0 noisebox-filt1-freq noisebox-filt1-freq-set FLT\ FRQ 10 10 0 12 #202020 #f6f6f6 #509050 0 1;
#X obj 60 510 hsl 180 18 0 1 0 0 noisebox-filt1-res noisebox-filt1-res-set FLT\ RES 10 10 0 12 #202020 #f6f6f6 #509050 0 1;
#X obj 60 550 hsl 180 18 1 2000 0 0 noisebox-delay-time noisebox-delay-time-set DLY\ TME 10 10 0 12 #202020 #f6f6f6 #f0a050 0 1;
#X obj 60 580 hsl 180 18 0 0.97 0 0 noisebox-delay-feedback noisebox-delay-feedback-set DLY\ FDB 10 10 0 12 #202020 #f6f6f6 #f0a050 0 1;
#X obj 60 620 hsl 160 18 0.01 10 1 0 noisebox-delay-lfo-freq noisebox-delay-lfo-freq-set DLY\ LFO\ FRQ 10 10 0 12 #202020 #f6f6f6 #f0d060 0 1;
#X obj 60 650 hsl 160 18 0 600 0 0 noisebox-delay-lfo-depth noisebox-delay-lfo-depth-set DLY\ LFO\ INT 10 10 0 12 #202020 #f6f6f6 #f0d060 0 1;
#X obj 60 690 hsl 180 18 40 12000 1 0 noisebox-filt2-freq noisebox-filt2-freq-set FLT\ FRQ\ 2 10 10 0 12 #202020 #f6f6f6 #9050f0 0 1;
#X obj 60 720 hsl 180 18 0 1 0 0 noisebox-filt2-res noisebox-filt2-res-set FLT\ RES\ 2 10 10 0 12 #202020 #f6f6f6 #9050f0 0 1;
#X obj 60 760 hsl 200 18 0 20 0 0 noisebox-dist-range noisebox-dist-range-set DST\ RNG 10 10 0 12 #202020 #f6f6f6 #f050f0 0 1;
#X obj 60 790 hsl 200 18 0 1 0 0 noisebox-volume noisebox-volume-set VOL\ CTR 10 10 0 12 #202020 #f6f6f6 #ffffff 0 1;
#N canvas 950 80 260 150 (subpatch) 0;
#X array noisebox_scope 512 float 3;
#A 0 0 0 0 0 0 0 0 0 0 0 0 0 0 0 0 0 0 0 0 0 0 0 0 0 0 0 0 0 0 0 0 0 0 0 0 0 0 0 0 0 0 0 0 0 0 0 0 0 0 0 0 0 0 0 0 0 0 0 0 0 0 0 0 0 0 0 0 0 0 0 0 0 0 0 0 0 0 0 0 0 0 0 0 0 0 0 0 0 0 0 0 0 0 0 0 0 0 0 0 0 0 0 0 0 0 0 0 0 0 0 0 0 0 0 0 0 0 0 0 0 0 0 0 0 0 0 0 0 0 0 0 0 0 0 0 0 0 0 0 0 0 0 0 0 0 0 0 0 0 0 0 0 0 0 0 0 0 0 0 0 0 0 0 0 0 0 0 0 0 0 0 0 0 0 0 0 0 0 0 0 0 0 0 0 0 0 0 0 0 0 0 0 0 0 0 0 0 0 0 0 0 0 0 0 0 0 0 0 0 0 0 0 0 0 0 0 0 0 0 0 0 0 0 0 0 0 0 0 0 0 0 0 0 0 0 0 0 0 0 0 0 0 0 0 0 0 0 0 0 0 0 0 0 0 0 0 0 0 0 0 0 0 0 0 0 0 0 0 0 0 0 0 0 0 0 0 0 0 0 0 0 0 0 0 0 0 0 0 0 0 0 0 0 0 0 0 0 0 0 0 0 0 0 0 0 0 0 0 0 0 0 0 0 0 0 0 0 0 0 0 0 0 0 0 0 0 0 0 0 0 0 0 0 0 0 0 0 0 0 0 0 0 0 0 0 0 0 0 0 0 0 0 0 0 0 0 0 0 0 0 0 0 0 0 0 0 0 0 0 0 0 0 0 0 0 0 0 0 0 0 0 0 0 0 0 0 0 0 0 0 0 0 0 0 0 0 0 0 0 0 0 0 0 0 0 0 0 0 0 0 0 0 0 0 0 0 0 0 0 0 0 0 0 0 0 0 0 0 0 0 0 0 0 0 0 0 0 0 0 0 0 0 0 0 0 0 0 0 0 0 0 0 0 0 0 0 0 0 0 0 0 0 0 0 0 0 0 0 0 0 0 0 0 0 0 0 0 0 0 0 0 0 0 0 0 0 0 0 0 0 0 0 0 0 0 0 0 0 0 0 0 0 0 0 0 0 0 0 0 0 0 0;
#X coords 0 1 511 -1 400 160 1;
#X restore 540 80 graph;
#N canvas 960 280 260 150 (subpatch) 0;
#X array noisebox_freqpad 64 float 1;
#A 0 0.5 0.5 0.5 0.5 0.5 0.5 0.5 0.5 0.5 0.5 0.5 0.5 0.5 0.5 0.5 0.5 0.5 0.5 0.5 0.5 0.5 0.5 0.5 0.5 0.5 0.5 0.5 0.5 0.5 0.5 0.5 0.5 0.5 0.5 0.5 0.5 0.5 0.5 0.5 0.5 0.5 0.5 0.5 0.5 0.5 0.5 0.5 0.5 0.5 0.5 0.5 0.5 0.5 0.5 0.5 0.5 0.5 0.5 0.5 0.5 0.5 0.5 0.5 0.5;
#X coords 0 1 63 0 400 120 1;
#X restore 540 260 graph;
#X text 552 60 Oscilloscope – live mix output;
#X text 552 244 Frequency touch pad – drag vertically to retune (log 20-8000 Hz).;
#X obj 540 420 pd engine;
#X obj 960 300 pd scope-writer;
#X obj 960 340 pd freq-touch;
#X obj 1060 780 dac~;
#X connect 3 0 4 0;
#X connect 33 0 36 0;
#X connect 33 1 36 1;
#N canvas 160 100 1180 880 engine 0;
#X obj 40 40 r noisebox-osc-freq;
#X obj 40 70 clip 20 8000;
#X obj 40 100 t f f;
#X obj 120 130 ftom;
#X obj 120 160 + 0.5;
#X obj 120 190 int;
#X obj 120 220 mtof;
#X obj 200 130 r noisebox-hold;
#X obj 260 130 r noisebox-osc-wave;
#X obj 40 250 expr (($f3==0)&&($f4!=2)&&($f4!=4))?$f2:$f1;
#X obj 40 280 clip 10 12000;
#X obj 40 310 pack f 5;
#X obj 40 340 line~;
#X obj 40 370 s~ $0-basefreq;
#X obj 200 250 r noisebox-lfo-freq;
#X obj 200 280 max 0.01;
#X obj 200 310 pack f 5;
#X obj 200 340 line~;
#X obj 260 250 r noisebox-lfo-wave;
#X obj 320 250 r noisebox-lfo-depth;
#X obj 320 280 clip 0 1;
#X obj 320 310 sig~ 0;
#X obj 200 370 pd lfo-wavegen;
#X obj 200 400 *~;
#X obj 200 430 r~ $0-basefreq;
#X obj 200 460 *~;
#X obj 200 490 r~ $0-basefreq;
#X obj 200 520 +~;
#X obj 200 550 max~;
#X obj 240 550 sig~ 1;
#X obj 200 580 s~ $0-modfreq;
#X obj 360 430 r~ $0-modfreq;
#X obj 360 460 pd osc-wavegen;
#X obj 360 490 *~ 0.85;
#X obj 360 520 s~ $0-osc;
#X obj 520 430 r~ $0-osc;
#X obj 580 430 r noisebox-filt1-freq;
#X obj 580 460 clip 40 12000;
#X obj 580 490 pack f 5;
#X obj 580 520 line~;
#X obj 660 430 r noisebox-filt1-res;
#X obj 660 460 clip 0 0.99;
#X obj 660 490 expr ($f1*48)+1;
#X obj 660 520 sig~ 1;
#X obj 520 550 vcf~ 0 1;
#X obj 520 580 vcf~ 0 1;
#X obj 520 610 s~ $0-pre-delay;
#X obj 520 640 r~ $0-pre-delay;
#X obj 700 430 r noisebox-delay-time;
#X obj 700 460 clip 1 2000;
#X obj 700 490 pack f 5;
#X obj 700 520 line~;
#X obj 760 430 r noisebox-delay-lfo-freq;
#X obj 760 460 max 0.01;
#X obj 760 490 pack f 5;
#X obj 760 520 line~;
#X obj 820 430 r noisebox-delay-lfo-depth;
#X obj 820 460 clip 0 600;
#X obj 820 490 sig~ 0;
#X obj 760 550 osc~ 0;
#X obj 760 580 *~;
#X obj 700 610 +~;
#X obj 700 640 max~;
#X obj 740 640 sig~ 1;
#X obj 640 610 delwrite~ $0-delay 5000;
#X obj 640 640 vd~ $0-delay;
#X obj 640 670 lop~ 7000;
#X obj 600 430 r noisebox-delay-feedback;
#X obj 600 460 clip 0 0.97;
#X obj 600 490 sig~ 0;
#X obj 640 700 *~;
#X obj 520 670 +~;
#X obj 640 730 +~;
#X obj 640 760 s~ $0-post-delay;
#X obj 760 700 r~ $0-post-delay;
#X obj 820 700 r noisebox-filt2-freq;
#X obj 820 730 clip 40 12000;
#X obj 820 760 pack f 5;
#X obj 820 790 line~;
#X obj 900 700 r noisebox-filt2-res;
#X obj 900 730 clip 0 0.99;
#X obj 900 760 expr ($f1*48)+1;
#X obj 900 790 sig~ 1;
#X obj 760 820 vcf~ 0 1;
#X obj 760 850 vcf~ 0 1;
#X obj 760 880 s~ $0-post-filter;
#X obj 900 820 r~ $0-post-filter;
#X obj 960 820 r noisebox-dist-range;
#X obj 960 850 clip 0 20;
#X obj 960 880 expr 1 + ($f1*5);
#X obj 960 910 sig~ 1;
#X obj 900 850 *~;
#X obj 900 880 wrap~;
#X obj 900 910 *~ 2;
#X obj 900 940 -~ 1;
#X obj 900 970 *~ 0.8;
#X obj 900 1000 s~ noisebox-scope;
#X obj 900 1030 s~ $0-dist;
#X obj 1040 880 r~ $0-dist;
#X obj 1100 880 r noisebox-volume;
#X obj 1100 910 clip 0 1;
#X obj 1100 940 sig~ 0;
#X obj 1040 910 *~;
#X obj 1160 910 *~;
#X obj 1040 940 outlet~;
#X obj 1160 940 outlet~;
#X connect 0 0 1 0;
#X connect 1 0 2 0;
#X connect 2 1 3 0;
#X connect 3 0 4 0;
#X connect 4 0 5 0;
#X connect 5 0 6 0;
#X connect 2 0 9 0;
#X connect 6 0 9 1;
#X connect 7 0 9 2;
#X connect 8 0 9 3;
#X connect 9 0 10 0;
#X connect 10 0 11 0;
#X connect 11 0 12 0;
#X connect 12 0 13 0;
#X connect 14 0 15 0;
#X connect 15 0 16 0;
#X connect 16 0 17 0;
#X connect 18 0 22 1;
#X connect 19 0 20 0;
#X connect 20 0 21 0;
#X connect 21 0 23 1;
#X connect 17 0 22 0;
#X connect 22 0 23 0;
#X connect 23 0 25 0;
#X connect 24 0 25 1;
#X connect 25 0 27 0;
#X connect 26 0 27 1;
#X connect 27 0 28 0;
#X connect 29 0 28 1;
#X connect 28 0 30 0;
#X connect 31 0 32 0;
#X connect 8 0 32 1;
#X connect 32 0 33 0;
#X connect 33 0 34 0;
#X connect 35 0 44 0;
#X connect 37 0 38 0;
#X connect 38 0 39 0;
#X connect 40 0 41 0;
#X connect 41 0 42 0;
#X connect 42 0 43 0;
#X connect 39 0 44 1;
#X connect 39 0 45 1;
#X connect 43 0 44 2;
#X connect 43 0 45 2;
#X connect 44 1 45 0;
#X connect 45 1 46 0;
#X connect 46 0 47 0;
#X connect 48 0 49 0;
#X connect 49 0 50 0;
#X connect 50 0 51 0;
#X connect 52 0 53 0;
#X connect 53 0 54 0;
#X connect 54 0 55 0;
#X connect 56 0 57 0;
#X connect 57 0 58 0;
#X connect 55 0 59 0;
#X connect 59 0 60 0;
#X connect 58 0 60 1;
#X connect 51 0 61 0;
#X connect 60 0 61 1;
#X connect 61 0 62 0;
#X connect 63 0 62 1;
#X connect 62 0 65 0;
#X connect 65 0 66 0;
#X connect 66 0 70 0;
#X connect 67 0 68 0;
#X connect 68 0 69 0;
#X connect 69 0 70 1;
#X connect 66 0 72 0;
#X connect 47 0 71 0;
#X connect 70 0 71 1;
#X connect 71 0 64 0;
#X connect 47 0 72 1;
#X connect 72 0 73 0;
#X connect 73 0 74 0;
#X connect 75 0 76 0;
#X connect 76 0 77 0;
#X connect 77 0 78 0;
#X connect 79 0 80 0;
#X connect 80 0 81 0;
#X connect 81 0 82 0;
#X connect 78 0 83 1;
#X connect 78 0 84 1;
#X connect 82 0 83 2;
#X connect 82 0 84 2;
#X connect 74 0 83 0;
#X connect 83 1 84 0;
#X connect 84 1 85 0;
#X connect 86 0 91 0;
#X connect 87 0 88 0;
#X connect 88 0 89 0;
#X connect 89 0 90 0;
#X connect 90 0 91 1;
#X connect 91 0 92 0;
#X connect 92 0 93 0;
#X connect 93 0 94 0;
#X connect 94 0 95 0;
#X connect 95 0 96 0;
#X connect 95 0 97 0;
#X connect 98 0 102 0;
#X connect 98 0 103 0;
#X connect 99 0 100 0;
#X connect 100 0 101 0;
#X connect 101 0 102 1;
#X connect 101 0 103 1;
#X connect 102 0 104 0;
#X connect 103 0 105 0;
#N canvas 120 120 820 520 lfo-wavegen 0;
#X obj 60 40 inlet~;
#X obj 200 40 inlet;
#X obj 60 70 sig~ 0.001;
#X obj 60 100 max~;
#X obj 60 130 phasor~;
#X obj 60 160 +~ -0.25;
#X obj 60 190 wrap~;
#X obj 60 220 cos~;
#X obj 150 130 *~ 2;
#X obj 150 160 -~ 1;
#X obj 150 190 abs~;
#X obj 150 220 *~ 2;
#X obj 150 250 -~ 1;
#X obj 240 130 *~ 2;
#X obj 240 160 -~ 1;
#X obj 320 130 expr~ $v1 < 0.25 ? 1 : -1;
#X obj 400 130 expr~ $v1 < 0.5 ? 1 : -1;
#X obj 480 100 noise~;
#X obj 480 130 expr~ $v1 < 0.02;
#X obj 480 160 samphold~;
#X obj 560 100 noise~;
#X obj 560 130 vcf~ 0 30;
#X obj 560 160 sig~ 30;
#X obj 640 100 noise~;
#X obj 640 130 hip~ 10;
#X obj 200 70 sig~;
#X obj 320 200 expr~ if($v9==0,$v1,if($v9==1,$v2,if($v9==2,$v3,if($v9==3,$v4,if($v9==4,$v5,if($v9==5,$v6,if($v9==6,$v7,$v8))))))));;
#X obj 320 230 *~ 0.9;
#X obj 320 260 outlet~;
#X connect 0 0 3 0;
#X connect 1 0 25 0;
#X connect 2 0 3 1;
#X connect 3 0 4 0;
#X connect 3 0 20 1;
#X connect 4 0 5 0;
#X connect 4 0 8 0;
#X connect 4 0 13 0;
#X connect 4 0 15 0;
#X connect 4 0 16 0;
#X connect 4 0 18 0;
#X connect 5 0 6 0;
#X connect 6 0 7 0;
#X connect 7 0 26 0;
#X connect 8 0 9 0;
#X connect 9 0 10 0;
#X connect 10 0 11 0;
#X connect 11 0 12 0;
#X connect 12 0 26 6;
#X connect 13 0 14 0;
#X connect 14 0 26 7;
#X connect 15 0 26 2;
#X connect 16 0 26 8;
#X connect 17 0 19 0;
#X connect 18 0 19 1;
#X connect 19 0 26 3;
#X connect 20 0 21 0;
#X connect 21 1 26 4;
#X connect 22 0 21 2;
#X connect 23 0 24 0;
#X connect 24 0 26 5;
#X connect 25 0 26 9;
#X connect 26 0 27 0;
#X connect 27 0 28 0;
#X restore 200 370 pd lfo-wavegen;
#N canvas 120 120 820 520 osc-wavegen 0;
#X obj 60 40 inlet~;
#X obj 200 40 inlet;
#X obj 60 70 sig~ 0.001;
#X obj 60 100 max~;
#X obj 60 130 phasor~;
#X obj 60 160 +~ -0.25;
#X obj 60 190 wrap~;
#X obj 60 220 cos~;
#X obj 150 130 *~ 2;
#X obj 150 160 -~ 1;
#X obj 150 190 abs~;
#X obj 150 220 *~ 2;
#X obj 150 250 -~ 1;
#X obj 240 130 *~ 2;
#X obj 240 160 -~ 1;
#X obj 320 130 expr~ $v1 < 0.25 ? 1 : -1;
#X obj 400 130 expr~ $v1 < 0.5 ? 1 : -1;
#X obj 480 100 noise~;
#X obj 480 130 expr~ $v1 < 0.02;
#X obj 480 160 samphold~;
#X obj 560 100 noise~;
#X obj 560 130 vcf~ 0 30;
#X obj 560 160 sig~ 30;
#X obj 640 100 noise~;
#X obj 640 130 hip~ 10;
#X obj 200 70 sig~;
#X obj 320 200 expr~ if($v9==0,$v1,if($v9==1,$v2,if($v9==2,$v3,if($v9==3,$v4,if($v9==4,$v5,if($v9==5,$v6,if($v9==6,$v7,$v8))))))));;
#X obj 320 230 *~ 0.9;
#X obj 320 260 outlet~;
#X connect 0 0 3 0;
#X connect 1 0 25 0;
#X connect 2 0 3 1;
#X connect 3 0 4 0;
#X connect 3 0 20 1;
#X connect 4 0 5 0;
#X connect 4 0 8 0;
#X connect 4 0 13 0;
#X connect 4 0 15 0;
#X connect 4 0 16 0;
#X connect 4 0 18 0;
#X connect 5 0 6 0;
#X connect 6 0 7 0;
#X connect 7 0 26 0;
#X connect 8 0 9 0;
#X connect 9 0 10 0;
#X connect 10 0 11 0;
#X connect 11 0 12 0;
#X connect 12 0 26 6;
#X connect 13 0 14 0;
#X connect 14 0 26 7;
#X connect 15 0 26 2;
#X connect 16 0 26 8;
#X connect 17 0 19 0;
#X connect 18 0 19 1;
#X connect 19 0 26 3;
#X connect 20 0 21 0;
#X connect 21 1 26 4;
#X connect 22 0 21 2;
#X connect 23 0 24 0;
#X connect 24 0 26 5;
#X connect 25 0 26 9;
#X connect 26 0 27 0;
#X connect 27 0 28 0;
#X restore 360 460 pd osc-wavegen;
#X restore 860 500 pd engine;
#N canvas 0 0 320 200 scope-writer 0;
#X obj 40 40 r~ noisebox-scope;
#X obj 40 80 tabwrite~ noisebox_scope;
#X obj 120 60 metro 25;
#X obj 120 30 loadbang;
#X connect 0 0 1 0;
#X connect 2 0 1 0;
#X connect 3 0 2 0;
#X restore 960 300 pd scope-writer;
#N canvas 0 0 600 420 freq-touch 0;
#X obj 40 40 loadbang;
#X obj 40 70 metro 40;
#X obj 40 100 array sum noisebox_freqpad;
#X obj 40 130 / 64;
#X obj 40 160 clip 0 1;
#X obj 40 190 t f f;
#X obj 40 220 expr exp($f1*(log(8000)-log(20))+log(20));
#X obj 40 250 t f f;
#X obj 40 280 s noisebox-osc-freq;
#X msg 150 280 ; noisebox-osc-freq-set set $1;
#X obj 300 200 r noisebox-osc-freq;
#X obj 300 230 max 1;
#X obj 300 260 expr (log($f1)-log(20))/(log(8000)-log(20));
#X obj 300 290 clip 0 1;
#X msg 300 320 ; noisebox_freqpad const $1;
#X connect 0 0 1 0;
#X connect 1 0 2 0;
#X connect 2 0 3 0;
#X connect 3 0 4 0;
#X connect 4 0 5 0;
#X connect 5 0 6 0;
#X connect 5 1 6 1;
#X connect 6 0 7 0;
#X connect 7 0 8 0;
#X connect 7 1 9 0;
#X connect 10 0 11 0;
#X connect 11 0 12 0;
#X connect 12 0 13 0;
#X connect 13 0 14 0;
#X restore 960 340 pd freq-touch;
