#N canvas 160 100 600 1040 10;
#X obj 60 40 pd oscillator;
#X obj 60 200 pd filter-pre;
#X obj 60 360 pd delay-section;
#X obj 60 520 pd filter-post;
#X obj 60 680 pd distortion;
#X obj 60 840 pd output-stage;
#X obj 60 1000 outlet~;
#X obj 180 1000 outlet~;
#X connect 0 0 1 0;
#X connect 1 0 2 0;
#X connect 2 0 3 0;
#X connect 3 0 4 0;
#X connect 4 0 5 0;
#X connect 5 0 6 0;
#X connect 5 1 7 0;
#N canvas 120 80 780 520 oscillator 0;
#X obj 40 40 r noisebox-osc-freq;
#X obj 40 70 clip 20 8000;
#X obj 40 100 t f f;
#X obj 120 130 ftom;
#X obj 120 160 + 0.5;
#X obj 120 190 int;
#X obj 120 220 mtof;
#X obj 200 40 r noisebox-hold;
#X obj 260 40 r noisebox-osc-wave;
#X obj 40 250 expr (($f3==0)&&($f4!=2)&&($f4!=4))?$f2:$f1;
#X obj 40 280 clip 10 12000;
#X obj 40 310 pack f 5;
#X obj 40 340 line~;
#X obj 220 40 r noisebox-lfo-freq;
#X obj 220 70 max 0.01;
#X obj 220 100 pack f 5;
#X obj 220 130 line~;
#X obj 280 40 r noisebox-lfo-wave;
#X obj 340 40 r noisebox-lfo-depth;
#X obj 340 70 clip 0 1;
#X obj 340 100 sig~ 0;
#X obj 220 160 pd lfo-wavegen;
#X obj 220 190 *~;
#X obj 220 220 *~;
#X obj 220 250 +~;
#X obj 260 250 sig~ 1;
#X obj 220 280 max~;
#X obj 220 310 pd osc-wavegen;
#X obj 220 340 *~ 0.85;
#X obj 220 370 outlet~;
#X connect 0 0 1 0;
#X connect 1 0 2 0;
#X connect 2 1 3 0;
#X connect 3 0 4 0;
#X connect 4 0 5 0;
#X connect 5 0 6 0;
#X connect 2 0 9 0;
#X connect 6 0 9 1;
#X connect 7 0 9 2;
#X connect 8 0 9 3;
#X connect 9 0 10 0;
#X connect 10 0 11 0;
#X connect 11 0 12 0;
#X connect 12 0 22 1;
#X connect 12 0 24 1;
#X connect 13 0 14 0;
#X connect 14 0 15 0;
#X connect 15 0 16 0;
#X connect 16 0 21 0;
#X connect 17 0 21 1;
#X connect 18 0 19 0;
#X connect 19 0 20 0;
#X connect 20 0 22 1;
#X connect 21 0 22 0;
#X connect 22 0 23 0;
#X connect 23 0 24 0;
#X connect 24 0 26 0;
#X connect 25 0 26 1;
#X connect 26 0 27 0;
#X connect 8 0 27 1;
#X connect 27 0 28 0;
#X connect 28 0 29 0;
#N canvas 120 120 820 520 lfo-wavegen 0;
#X obj 60 40 inlet~;
#X obj 200 40 inlet;
#X obj 60 70 sig~ 0.001;
#X obj 60 100 max~;
#X obj 60 130 phasor~;
#X obj 60 160 +~ -0.25;
#X obj 60 190 wrap~;
#X obj 60 220 cos~;
#X obj 150 130 *~ 2;
#X obj 150 160 -~ 1;
#X obj 150 190 abs~;
#X obj 150 220 *~ 2;
#X obj 150 250 -~ 1;
#X obj 240 130 *~ 2;
#X obj 240 160 -~ 1;
#X obj 320 130 expr~ $v1 < 0.25 ? 1 : -1;
#X obj 400 130 expr~ $v1 < 0.5 ? 1 : -1;
#X obj 480 100 noise~;
#X obj 480 130 expr~ $v1 < 0.02;
#X obj 480 160 samphold~;
#X obj 560 100 noise~;
#X obj 560 130 vcf~ 0 30;
#X obj 560 160 sig~ 30;
#X obj 640 100 noise~;
#X obj 640 130 hip~ 10;
#X obj 200 70 sig~;
#X obj 320 200 expr~ if($v9==0,$v1,if($v9==1,$v2,if($v9==2,$v3,if($v9==3,$v4,if($v9==4,$v5,if($v9==5,$v6,if($v9==6,$v7,$v8))))))));;
#X obj 320 230 *~ 0.9;
#X obj 320 260 outlet~;
#X connect 0 0 3 0;
#X connect 1 0 25 0;
#X connect 2 0 3 1;
#X connect 3 0 4 0;
#X connect 3 0 20 1;
#X connect 4 0 5 0;
#X connect 4 0 8 0;
#X connect 4 0 13 0;
#X connect 4 0 15 0;
#X connect 4 0 16 0;
#X connect 4 0 18 0;
#X connect 5 0 6 0;
#X connect 6 0 7 0;
#X connect 7 0 26 0;
#X connect 8 0 9 0;
#X connect 9 0 10 0;
#X connect 10 0 11 0;
#X connect 11 0 12 0;
#X connect 12 0 26 6;
#X connect 13 0 14 0;
#X connect 14 0 26 7;
#X connect 15 0 26 2;
#X connect 16 0 26 8;
#X connect 17 0 19 0;
#X connect 18 0 19 1;
#X connect 19 0 26 3;
#X connect 20 0 21 0;
#X connect 21 1 26 4;
#X connect 22 0 21 2;
#X connect 23 0 24 0;
#X connect 24 0 26 5;
#X connect 25 0 26 9;
#X connect 26 0 27 0;
#X connect 27 0 28 0;
#X restore 220 160 pd lfo-wavegen;
#N canvas 120 120 820 520 osc-wavegen 0;
#X obj 60 40 inlet~;
#X obj 200 40 inlet;
#X obj 60 70 sig~ 0.001;
#X obj 60 100 max~;
#X obj 60 130 phasor~;
#X obj 60 160 +~ -0.25;
#X obj 60 190 wrap~;
#X obj 60 220 cos~;
#X obj 150 130 *~ 2;
#X obj 150 160 -~ 1;
#X obj 150 190 abs~;
#X obj 150 220 *~ 2;
#X obj 150 250 -~ 1;
#X obj 240 130 *~ 2;
#X obj 240 160 -~ 1;
#X obj 320 130 expr~ $v1 < 0.25 ? 1 : -1;
#X obj 400 130 expr~ $v1 < 0.5 ? 1 : -1;
#X obj 480 100 noise~;
#X obj 480 130 expr~ $v1 < 0.02;
#X obj 480 160 samphold~;
#X obj 560 100 noise~;
#X obj 560 130 vcf~ 0 30;
#X obj 560 160 sig~ 30;
#X obj 640 100 noise~;
#X obj 640 130 hip~ 10;
#X obj 200 70 sig~;
#X obj 320 200 expr~ if($v9==0,$v1,if($v9==1,$v2,if($v9==2,$v3,if($v9==3,$v4,if($v9==4,$v5,if($v9==5,$v6,if($v9==6,$v7,$v8))))))));;
#X obj 320 230 *~ 0.9;
#X obj 320 260 outlet~;
#X connect 0 0 3 0;
#X connect 1 0 25 0;
#X connect 2 0 3 1;
#X connect 3 0 4 0;
#X connect 3 0 20 1;
#X connect 4 0 5 0;
#X connect 4 0 8 0;
#X connect 4 0 13 0;
#X connect 4 0 15 0;
#X connect 4 0 16 0;
#X connect 4 0 18 0;
#X connect 5 0 6 0;
#X connect 6 0 7 0;
#X connect 7 0 26 0;
#X connect 8 0 9 0;
#X connect 9 0 10 0;
#X connect 10 0 11 0;
#X connect 11 0 12 0;
#X connect 12 0 26 6;
#X connect 13 0 14 0;
#X connect 14 0 26 7;
#X connect 15 0 26 2;
#X connect 16 0 26 8;
#X connect 17 0 19 0;
#X connect 18 0 19 1;
#X connect 19 0 26 3;
#X connect 20 0 21 0;
#X connect 21 1 26 4;
#X connect 22 0 21 2;
#X connect 23 0 24 0;
#X connect 24 0 26 5;
#X connect 25 0 26 9;
#X connect 26 0 27 0;
#X connect 27 0 28 0;
#X restore 220 310 pd osc-wavegen;
#X restore 60 40 pd oscillator;
#N canvas 120 80 400 320 filter-pre 0;
#X obj 40 40 inlet~;
#X obj 160 40 r noisebox-filt1-freq;
#X obj 160 70 clip 40 12000;
#X obj 160 100 pack f 5;
#X obj 160 130 line~;
#X obj 240 40 r noisebox-filt1-res;
#X obj 240 70 clip 0 0.99;
#X obj 240 100 expr ($f1*48)+1;
#X obj 240 130 sig~ 1;
#X obj 40 170 vcf~ 0 1;
#X obj 40 200 vcf~ 0 1;
#X obj 40 230 outlet~;
#X connect 0 0 9 0;
#X connect 4 0 9 1;
#X connect 4 0 10 1;
#X connect 8 0 9 2;
#X connect 8 0 10 2;
#X connect 9 0 10 0;
#X connect 10 0 11 0;
#X connect 6 0 7 0;
#X connect 7 0 8 0;
#X connect 2 0 3 0;
#X connect 3 0 4 0;
#X connect 1 0 2 0;
#X restore 60 200 pd filter-pre;
#N canvas 120 80 560 520 delay-section 0;
#X obj 40 40 inlet~;
#X obj 140 40 r noisebox-delay-time;
#X obj 140 70 clip 1 2000;
#X obj 140 100 pack f 10;
#X obj 140 130 line~;
#X obj 220 40 r noisebox-delay-lfo-depth;
#X obj 220 70 clip 0 600;
#X obj 220 100 sig~ 0;
#X obj 300 40 r noisebox-delay-lfo-freq;
#X obj 300 70 max 0.01;
#X obj 300 100 pack f 10;
#X obj 300 130 line~;
#X obj 300 160 osc~ 0;
#X obj 300 190 *~;
#X obj 140 160 +~;
#X obj 180 160 sig~ 1;
#X obj 140 190 max~;
#X obj 40 220 +~;
#X obj 40 250 delwrite~ $0-delay 5000;
#X obj 360 160 vd~ $0-delay;
#X obj 360 190 lop~ 7000;
#X obj 420 40 r noisebox-delay-feedback;
#X obj 420 70 clip 0 0.97;
#X obj 420 100 sig~ 0;
#X obj 360 220 *~;
#X obj 40 280 +~;
#X obj 40 310 outlet~;
#X connect 0 0 17 0;
#X connect 0 0 24 0;
#X connect 1 0 2 0;
#X connect 2 0 3 0;
#X connect 3 0 4 0;
#X connect 4 0 14 0;
#X connect 5 0 6 0;
#X connect 6 0 7 0;
#X connect 7 0 13 1;
#X connect 8 0 9 0;
#X connect 9 0 10 0;
#X connect 10 0 11 0;
#X connect 11 0 12 0;
#X connect 12 0 13 0;
#X connect 13 0 14 1;
#X connect 14 0 16 0;
#X connect 15 0 16 1;
#X connect 16 0 19 0;
#X connect 17 0 18 0;
#X connect 19 0 20 0;
#X connect 20 0 23 0;
#X connect 20 0 24 1;
#X connect 21 0 22 0;
#X connect 22 0 23 0;
#X connect 23 0 17 1;
#X connect 24 0 25 0;
#X restore 60 360 pd delay-section;
#N canvas 120 80 400 320 filter-post 0;
#X obj 40 40 inlet~;
#X obj 160 40 r noisebox-filt2-freq;
#X obj 160 70 clip 40 12000;
#X obj 160 100 pack f 5;
#X obj 160 130 line~;
#X obj 240 40 r noisebox-filt2-res;
#X obj 240 70 clip 0 0.99;
#X obj 240 100 expr ($f1*48)+1;
#X obj 240 130 sig~ 1;
#X obj 40 170 vcf~ 0 1;
#X obj 40 200 vcf~ 0 1;
#X obj 40 230 outlet~;
#X connect 0 0 9 0;
#X connect 4 0 9 1;
#X connect 4 0 10 1;
#X connect 8 0 9 2;
#X connect 8 0 10 2;
#X connect 9 0 10 0;
#X connect 10 0 11 0;
#X connect 6 0 7 0;
#X connect 7 0 8 0;
#X connect 2 0 3 0;
#X connect 3 0 4 0;
#X connect 1 0 2 0;
#X restore 60 520 pd filter-post;
#N canvas 120 80 360 360 distortion 0;
#X obj 40 40 inlet~;
#X obj 160 40 r noisebox-dist-range;
#X obj 160 70 clip 0 20;
#X obj 160 100 expr 1 + ($f1*5);
#X obj 160 130 sig~ 1;
#X obj 40 160 *~;
#X obj 40 190 wrap~;
#X obj 40 220 *~ 2;
#X obj 40 250 -~ 1;
#X obj 40 280 *~ 0.8;
#X obj 40 310 s~ noisebox-scope;
#X obj 40 340 outlet~;
#X connect 0 0 5 0;
#X connect 1 0 2 0;
#X connect 2 0 3 0;
#X connect 3 0 4 0;
#X connect 4 0 5 1;
#X connect 5 0 6 0;
#X connect 6 0 7 0;
#X connect 7 0 8 0;
#X connect 8 0 9 0;
#X connect 9 0 10 0;
#X connect 9 0 11 0;
#X restore 60 680 pd distortion;
#N canvas 120 80 320 240 output-stage 0;
#X obj 40 40 inlet~;
#X obj 140 40 r noisebox-volume;
#X obj 140 70 clip 0 1;
#X obj 140 100 pack f 5;
#X obj 140 130 line~;
#X obj 40 160 *~;
#X obj 40 190 outlet~;
#X obj 140 190 outlet~;
#X connect 0 0 5 0;
#X connect 4 0 5 1;
#X connect 5 0 6 0;
#X connect 5 0 7 0;
#X restore 60 840 pd output-stage;
